<?xml version="1.0" encoding="utf-8"?>
<!-- Generator: Adobe Illustrator 21.0.0, SVG Export Plug-In . SVG Version: 6.00 Build 0)  -->
<svg version="1.1" id="Logo" xmlns="http://www.w3.org/2000/svg" xmlns:xlink="http://www.w3.org/1999/xlink" x="0px" y="0px"
	 viewBox="0 0 150 33" style="enable-background:new 0 0 150 33;" xml:space="preserve">
<style type="text/css">
	.st0{fill:#4776A4;}
	.st1{font-family:'Keytin';}
	.st2{font-size:28.7993px;}
</style>
<circle class="st0" cx="22.1" cy="24.1" r="3.5"/>
<rect x="16.2" y="15.8" class="st0" width="2.3" height="2.9"/>
<rect x="19.5" y="15.8" class="st0" width="2.3" height="2.9"/>
<rect x="22.8" y="15.8" class="st0" width="2.3" height="2.9"/>
<rect x="25.9" y="15.8" class="st0" width="2.3" height="2.9"/>
<g>
	<path class="st0" d="M22.1,30c-2.5,0-4.9-1-6.6-2.8c-1.8-1.8-2.8-4.1-2.8-6.6c0-2.5,1-4.9,2.8-6.6c1.8-1.8,4.1-2.8,6.6-2.8
		c2.5,0,4.9,1,6.6,2.8c1.8,1.8,2.8,4.1,2.8,6.6c0,2.5-1,4.9-2.8,6.6C26.9,29,24.6,30,22.1,30z M22.1,11.9c-2.3,0-4.5,0.9-6.1,2.5
		c-1.6,1.6-2.5,3.8-2.5,6.1c0,2.3,0.9,4.5,2.5,6.1c1.6,1.6,3.8,2.5,6.1,2.5c2.3,0,4.5-0.9,6.1-2.5c1.6-1.6,2.5-3.8,2.5-6.1
		c0-2.3-0.9-4.5-2.5-6.1C26.6,12.8,24.4,11.9,22.1,11.9z"/>
</g>
<path class="st0" d="M22.1,29.6c-5,0-9-4-9-9c0-5,4-9,9-9c1,0,2,0.2,2.9,0.5c-3.5-6.2-8.7-12-8.7-12S4.4,13.3,4.4,21
	c0,6.5,5.3,11.8,11.8,11.8c3.3,0,6.4-1.4,8.5-3.6C23.9,29.5,23,29.6,22.1,29.6z M7.6,21.9l0-0.1c0.3,3.5,3.1,6.8,5.4,7.8
	C9.4,29.4,7.6,26.1,7.6,21.9z"/>
<text transform="matrix(1 0 0 1 37.8779 26.1104)" class="st1 st2">Hidrômetro Inteligente</text>
</svg>
